<svg xmlns="http://www.w3.org/2000/svg" width="512" height="512" viewBox="0 0 512 512">
  <rect width="512" height="512" rx="116" fill="#dd5b00"></rect>
  <g fill="#ffffff">
    <rect x="150" y="196" width="96" height="170" rx="8"></rect>
    <rect x="266" y="148" width="96" height="218" rx="8"></rect>
  </g>
  <g fill="#dd5b00">
    <rect x="172" y="222" width="22" height="22" rx="4"></rect>
    <rect x="202" y="222" width="22" height="22" rx="4"></rect>
    <rect x="172" y="258" width="22" height="22" rx="4"></rect>
    <rect x="202" y="258" width="22" height="22" rx="4"></rect>
    <rect x="172" y="294" width="22" height="22" rx="4"></rect>
    <rect x="202" y="294" width="22" height="22" rx="4"></rect>
    <rect x="288" y="176" width="22" height="22" rx="4"></rect>
    <rect x="318" y="176" width="22" height="22" rx="4"></rect>
    <rect x="288" y="212" width="22" height="22" rx="4"></rect>
    <rect x="318" y="212" width="22" height="22" rx="4"></rect>
    <rect x="288" y="248" width="22" height="22" rx="4"></rect>
    <rect x="318" y="248" width="22" height="22" rx="4"></rect>
    <rect x="288" y="284" width="22" height="22" rx="4"></rect>
    <rect x="318" y="284" width="22" height="22" rx="4"></rect>
  </g>
  <rect x="132" y="360" width="248" height="20" rx="10" fill="#ffffff"></rect>
</svg>
