<svg xmlns="http://www.w3.org/2000/svg" width="512" height="512" viewBox="0 0 512 512">
  <rect width="512" height="512" rx="116" fill="#0075de"></rect>
  <path d="M168 120 h120 l60 60 v150 a18 18 0 0 1 -18 18 H168 a18 18 0 0 1 -18 -18 V138 a18 18 0 0 1 18 -18 Z" fill="#ffffff"></path>
  <path d="M288 120 v42 a18 18 0 0 0 18 18 h42 Z" fill="#bcd9f7"></path>
  <rect x="188" y="206" width="96" height="15" rx="7.5" fill="#9cc4ef"></rect>
  <rect x="188" y="240" width="132" height="15" rx="7.5" fill="#cfe4fb"></rect>
  <rect x="148" y="392" width="216" height="18" rx="9" fill="#ffffff"></rect>
  <path d="M178 410 l-18 28 M230 410 l-18 28 M282 410 l-18 28 M334 410 l-18 28" stroke="#ffffff" stroke-width="13" stroke-linecap="round"></path>
</svg>
